<svg xmlns="http://www.w3.org/2000/svg" viewBox="0 0 256 256" role="img" aria-label="Sofia avatar">
  <defs>
    <linearGradient id="bg" x1="0" y1="0" x2="1" y2="1">
      <stop offset="0%" stop-color="#7c3aed"/>
      <stop offset="100%" stop-color="#2563eb"/>
    </linearGradient>
  </defs>
  <rect width="256" height="256" rx="128" fill="url(#bg)"/>
  <circle cx="128" cy="116" r="70" fill="#f6d2c8"/>
  <path d="M50 138c0-52 35-92 78-92s78 40 78 92v24c0 10-8 18-18 18H68c-10 0-18-8-18-18v-24z" fill="#4c1d95"/>
  <path d="M88 102c12-18 30-28 40-28s28 10 40 28" fill="#4c1d95"/>
  <circle cx="104" cy="120" r="6" fill="#1f2937"/>
  <circle cx="152" cy="120" r="6" fill="#1f2937"/>
  <path d="M108 148c10 8 30 8 40 0" fill="none" stroke="#b45309" stroke-width="4" stroke-linecap="round"/>
  <path d="M68 214c14-28 40-46 60-46s46 18 60 46" fill="#3b82f6"/>
</svg>
